<svg id="logo" xmlns="http://www.w3.org/2000/svg" xmlns:xlink="http://www.w3.org/1999/xlink" width="1425.914" height="1272.794" viewBox="0 0 1425.914 1272.794">
  <defs>
    <clipPath id="clip-path">
      <rect id="Rectangle_20" data-name="Rectangle 20" width="1425.914" height="1272.794" transform="translate(0 -0.004)" fill="none"/>
    </clipPath>
  </defs>
  <g id="Groupe_de_masques_16" data-name="Groupe de masques 16" transform="translate(0 0.004)" clip-path="url(#clip-path)">
    <path id="Tracé_3" data-name="Tracé 3" d="M1305.452,714.614c0,49.2-49.021,89.076-109.485,89.076H259.055c-60.465,0-109.481-39.879-109.481-89.076V503.991c0-49.2,49.016-89.089,109.481-89.089h936.912c60.464,0,109.485,39.888,109.485,89.089Z" fill="#ae0018"/>
    <path id="Tracé_4" data-name="Tracé 4" d="M313.686,727.041c-3.269,0-5.605,0-8.875.284h-8.875V596.115a130.853,130.853,0,0,0-20.552,3.985l-14.947-19.355a186.925,186.925,0,0,1,35.5-6.261V511.867h17.75c36.434,0,66.8,18.5,66.8,40.7,0,10.531-6.539,19.639-17.283,27.323,45.776,11.955,76.138,40.132,76.138,70.3,0,41.838-56.987,76.847-125.651,76.847m31.3-174.473c0-5.978-4.671-12.239-14.013-15.939v31.593c9.342-3.7,14.013-9.677,14.013-15.654m-14.013,43.547V704.556c42.506-5.123,72.868-28.178,72.868-54.362s-30.829-48.956-72.868-54.079" transform="translate(0)" fill="#fff"/>
    <path id="Tracé_5" data-name="Tracé 5" d="M672.417,727.041h-40.17c14.48-13.662,21.954-29.6,21.954-45.824,0-43.547-54.652-80.548-124.717-85.671V727.041H494.452V595.83a151.014,151.014,0,0,0-22.421,2.847l-10.277-20.493c10.744-1.992,21.487-3.7,32.7-3.985V511.867h17.282c36.434,0,66.8,18.5,66.8,40.7,0,9.392-5.605,18.5-14.947,25.616,71.466,12.808,125.65,54.932,125.65,103.033,0,15.654-6.072,31.593-16.816,45.824M543.5,553.991c0-9.393-6.072-13.946-14.013-17.362v31.593c8.875-3.416,12.612-8.539,14.013-14.231" transform="translate(0)" fill="#fff"/>
    <rect id="Rectangle_19" data-name="Rectangle 19" width="35.032" height="215.174" transform="translate(711.645 511.867)" fill="#fff"/>
    <path id="Tracé_6" data-name="Tracé 6" d="M769.112,619.454c0-58.632,79.874-107.587,176.564-107.587v21.346c-77.072,0-141.532,39.278-141.532,86.241S868.6,705.41,945.676,705.41v21.631c-96.69,0-176.564-48.67-176.564-107.587" transform="translate(0)" fill="#fff"/>
    <path id="Tracé_7" data-name="Tracé 7" d="M1178.755,727.041h-40.17c14.48-13.662,21.953-29.6,21.953-45.824,0-42.978-53.717-79.125-121.446-85.387h-4.671V727.041h-35.5V595.83a169.79,169.79,0,0,0-20.553,2.846l-10.275-20.492c10.743-1.993,21.019-3.131,30.828-3.985V511.867h35.5v57.209l99.492-57.209h50.914l-114.906,66.317c71.466,12.808,125.65,54.931,125.65,103.033,0,15.654-6.072,31.593-16.816,45.824" transform="translate(0)" fill="#fff"/>
    <path id="Tracé_8" data-name="Tracé 8" d="M624.925,337.368V140.062H644.76V317.533h44.368v19.835Z" transform="translate(0)"/>
    <path id="Tracé_9" data-name="Tracé 9" d="M806.571,280.733v56.634H786.735V280.733H721.489v56.634H701.654v-52.98c0-59.244,37.06-114.051,91.345-136.756l13.572-5.743V260.9h11.222v19.835ZM786.735,172.424A130.752,130.752,0,0,0,723.577,260.9h63.158Z" transform="translate(0)"/>
    <path id="Tracé_10" data-name="Tracé 10" d="M471.371,1110.686H446.4a86.1,86.1,0,0,0,13.645-46.744c0-44.419-33.969-82.163-77.518-87.388v134.132H360.756V976.844a59.621,59.621,0,0,0-13.936,2.9l-6.388-20.9c6.678-2.032,13.356-3.775,20.324-4.065V891.2H371.5a41.484,41.484,0,0,1,32.226,67.647c44.421,13.064,78.1,56.033,78.1,105.1a113.187,113.187,0,0,1-10.452,46.744M391.24,934.166c0-9.581-3.774-14.226-8.71-17.711v32.227c5.517-3.484,7.839-8.71,8.71-14.516" transform="translate(0)"/>
    <path id="Tracé_11" data-name="Tracé 11" d="M605.5,1110.686c-60.1,0-109.745-49.647-109.745-109.744C495.757,941.134,545.4,891.2,605.5,891.2c59.808,0,109.744,49.936,109.744,109.744,0,60.1-49.936,109.744-109.744,109.744m0-197.714c-47.9,0-87.97,40.065-87.97,87.97s40.066,87.678,87.97,87.678c47.614,0,87.679-40.065,87.679-87.678,0-47.905-39.775-87.97-87.679-87.97" transform="translate(0)"/>
    <path id="Tracé_12" data-name="Tracé 12" d="M779.7,1110.686c-27,0-50.518-22.355-50.518-50.518V891.2h22.066v168.97a28.6,28.6,0,0,0,57.194,0V891.2h21.775v168.97c0,27-22.355,50.518-50.517,50.518" transform="translate(0)"/>
    <path id="Tracé_13" data-name="Tracé 13" d="M953.9,1110.686c-60.1,0-109.744-49.646-109.744-109.744C844.152,941.134,893.8,891.2,953.9,891.2v21.774c-47.9,0-87.97,40.066-87.97,87.97,0,44.42,33.679,81.873,76.938,87.1v-40.356H913.25V1025.62h51.679v85.066Z" transform="translate(0)"/>
    <path id="Tracé_14" data-name="Tracé 14" d="M984.389,1013.446H967.55V991.381h16.839c5.227-55.162,53.131-98.711,109.164-98.711v21.774c-44.13,0-81.873,33.969-87.1,76.937h74.615v22.065h-74.615c5.226,42.969,42.679,76.647,87.1,76.647v22.065c-56.324,0-103.937-43.84-109.164-98.712" transform="translate(0)"/>
    <path id="Tracé_15" data-name="Tracé 15" d="M263.342,1023.984A613.757,613.757,0,0,1,177.6,893.137" transform="translate(0)" stroke="#000" stroke-linecap="round" stroke-miterlimit="10" stroke-width="25"/>
    <path id="Tracé_16" data-name="Tracé 16" d="M1032.923,1184.828a613.95,613.95,0,0,1-607.213-9.91" transform="translate(0)" fill="none" stroke="#000" stroke-linecap="round" stroke-miterlimit="10" stroke-width="25"/>
    <path id="Tracé_17" data-name="Tracé 17" d="M1281.43,892.954a613.551,613.551,0,0,1-89.445,135.229" transform="translate(0)" stroke="#000" stroke-linecap="round" stroke-miterlimit="10" stroke-width="25"/>
    <path id="Tracé_18" data-name="Tracé 18" d="M191.339,331.552C295.466,141.423,497.417,12.5,729.481,12.5A612.272,612.272,0,0,1,1256.1,311.417" transform="translate(0)" fill="none" stroke="#000" stroke-linecap="round" stroke-miterlimit="10" stroke-width="25"/>
  </g>
</svg>
