<svg id="undraw_breakfast_psiw" xmlns="http://www.w3.org/2000/svg" width="360.268" height="196.966" viewBox="0 0 360.268 196.966">
  <path id="Tracé_31" data-name="Tracé 31" d="M256.284,460.3h-11.53a1.529,1.529,0,0,0-1.529,1.529v5.061a1.529,1.529,0,0,0,1.529,1.529h1.911V476h7.708v-7.583h1.911a1.529,1.529,0,0,0,1.529-1.529v-5.061a1.529,1.529,0,0,0-1.529-1.529Z" transform="translate(-207.837 -357.638)" fill="#ae0018"/>
  <path id="Tracé_32" data-name="Tracé 32" d="M252.285,517.95a59.276,59.276,0,0,1-10.312-35.144,1.25,1.25,0,0,0-.976-1.248v-2.187H228.82v2.156h-.168a1.25,1.25,0,0,0-1.244,1.342,54.1,54.1,0,0,1-9.718,35.977,3.443,3.443,0,0,0-.623,2.087l1.331,41.187a3.565,3.565,0,0,0,3.535,3.441h27.542a3.567,3.567,0,0,0,3.537-3.5l.513-39.989A7.217,7.217,0,0,0,252.285,517.95Z" transform="translate(-192.29 -368.972)" fill="#3f3d56"/>
  <path id="Tracé_33" data-name="Tracé 33" d="M259.826,464.365a3.3,3.3,0,0,1-6.6,0" transform="translate(-213.783 -360.054)" opacity="0.2"/>
  <path id="Tracé_34" data-name="Tracé 34" d="M254.407,597.312h-3.335a8.754,8.754,0,0,0-17.3,0h-3.335A2.461,2.461,0,0,0,228,600.148l3.623,23.548h20.8l4.4-23.468a2.461,2.461,0,0,0-2.419-2.915Z" transform="translate(-198.773 -434.654)" fill="#ae0018"/>
  <path id="Tracé_35" data-name="Tracé 35" d="M773.306,307.634l-.8,31.975-.991,39.651H737.791L736.63,332.8,736,307.634Z" transform="translate(-437.399 -182.825)" fill="#e6e6e6"/>
  <rect id="Rectangle_23" data-name="Rectangle 23" width="4.775" height="63.27" transform="translate(314.716 107.798)" fill="#ae0018"/>
  <path id="Tracé_36" data-name="Tracé 36" d="M930.166,561.707l-.9,45.447H898.524l-1.058-53.247a20.948,20.948,0,0,1,16.564,2.278A46.482,46.482,0,0,0,930.166,561.707Z" transform="translate(-596.648 -412.805)" fill="#3f3d56"/>
  <rect id="Rectangle_24" data-name="Rectangle 24" width="4.382" height="4.382" transform="translate(305.104 154.019)" fill="#e6e6e6"/>
  <rect id="Rectangle_25" data-name="Rectangle 25" width="4.382" height="4.382" transform="translate(308.089 145.066)" fill="#e6e6e6"/>
  <rect id="Rectangle_26" data-name="Rectangle 26" width="4.382" height="4.382" transform="translate(318.361 148.654) rotate(36.562)" fill="#e6e6e6"/>
  <rect id="Rectangle_27" data-name="Rectangle 27" width="4.382" height="4.382" transform="translate(326.278 156.418) rotate(36.562)" fill="#e6e6e6"/>
  <rect id="Rectangle_28" data-name="Rectangle 28" width="4.382" height="4.382" transform="translate(312.848 160.894) rotate(36.562)" fill="#e6e6e6"/>
  <circle id="Ellipse_1" data-name="Ellipse 1" cx="0.895" cy="0.895" r="0.895" transform="translate(325.759 141.522)" fill="#3f3d56"/>
  <circle id="Ellipse_2" data-name="Ellipse 2" cx="0.895" cy="0.895" r="0.895" transform="translate(307.554 135.553)" fill="#3f3d56"/>
  <circle id="Ellipse_3" data-name="Ellipse 3" cx="0.895" cy="0.895" r="0.895" transform="translate(322.775 129.286)" fill="#3f3d56"/>
  <circle id="Ellipse_4" data-name="Ellipse 4" cx="98.081" cy="98.081" r="98.081" transform="translate(82.259 0)" fill="#ae0018"/>
  <path id="Tracé_37" data-name="Tracé 37" d="M495.632,415.723a71.589,71.589,0,1,1,50.622-20.968A71.589,71.589,0,0,1,495.632,415.723Zm0-138.764a67.175,67.175,0,1,0,67.175,67.175,67.251,67.251,0,0,0-67.175-67.175Z" transform="translate(-315.291 -246.052)" opacity="0.2"/>
  <circle id="Ellipse_5" data-name="Ellipse 5" cx="69.382" cy="69.382" r="69.382" transform="translate(110.958 28.699)" fill="#3f3d56"/>
  <path id="Tracé_38" data-name="Tracé 38" d="M471.92,361.872a8.805,8.805,0,0,1,15.693-7.992l19.6,38.493a8.805,8.805,0,1,1-15.693,7.992Z" transform="translate(-343.178 -291.534)" fill="#ff6584"/>
  <path id="Tracé_39" data-name="Tracé 39" d="M477.392,376.9l-.9-1.777a50.848,50.848,0,0,1,15.693-7.992l.9,1.777C486.725,370.234,481.314,372.685,477.392,376.9Z" transform="translate(-346.463 -302.269)" opacity="0.2"/>
  <path id="Tracé_40" data-name="Tracé 40" d="M487.8,397.336l-.9-1.777a50.848,50.848,0,0,1,15.693-7.992l.9,1.777C497.131,390.669,491.721,393.12,487.8,397.336Z" transform="translate(-352.647 -314.414)" opacity="0.2"/>
  <path id="Tracé_41" data-name="Tracé 41" d="M498.2,417.772,497.3,416A50.848,50.848,0,0,1,512.993,408l.9,1.777C507.538,411.1,502.127,413.556,498.2,417.772Z" transform="translate(-358.832 -326.559)" opacity="0.2"/>
  <path id="Tracé_42" data-name="Tracé 42" d="M508.611,438.207l-.9-1.777a50.848,50.848,0,0,1,15.693-7.992l.9,1.777C517.944,431.54,512.534,433.991,508.611,438.207Z" transform="translate(-365.016 -338.703)" opacity="0.2"/>
  <path id="Tracé_43" data-name="Tracé 43" d="M519.018,458.642l-.9-1.777a50.848,50.848,0,0,1,15.693-7.992l.9,1.777C528.351,451.975,522.941,454.426,519.018,458.642Z" transform="translate(-371.201 -350.847)" opacity="0.2"/>
  <path id="Tracé_44" data-name="Tracé 44" d="M435.672,397.391a8.805,8.805,0,1,1,15.693-7.992l19.6,38.493a8.805,8.805,0,0,1-15.693,7.992Z" transform="translate(-321.636 -312.643)" fill="#ff6584"/>
  <path id="Tracé_45" data-name="Tracé 45" d="M441.143,412.42l-.9-1.777a50.849,50.849,0,0,1,15.693-7.992l.9,1.777C450.476,405.753,445.066,408.2,441.143,412.42Z" transform="translate(-324.921 -323.378)" opacity="0.2"/>
  <path id="Tracé_46" data-name="Tracé 46" d="M451.55,432.855l-.9-1.777a50.847,50.847,0,0,1,15.693-7.992l.9,1.777C460.883,426.188,455.473,428.639,451.55,432.855Z" transform="translate(-331.105 -335.522)" opacity="0.2"/>
  <path id="Tracé_47" data-name="Tracé 47" d="M461.956,453.291l-.9-1.777a50.849,50.849,0,0,1,15.693-7.992l.9,1.777C471.289,446.624,465.879,449.075,461.956,453.291Z" transform="translate(-337.29 -347.667)" opacity="0.2"/>
  <path id="Tracé_48" data-name="Tracé 48" d="M472.363,473.726l-.9-1.777a50.848,50.848,0,0,1,15.693-7.992l.9,1.777C481.7,467.059,476.286,469.51,472.363,473.726Z" transform="translate(-343.474 -359.812)" opacity="0.2"/>
  <path id="Tracé_49" data-name="Tracé 49" d="M482.77,494.161l-.9-1.777a50.848,50.848,0,0,1,15.693-7.992l.9,1.777C492.1,487.494,486.692,489.945,482.77,494.161Z" transform="translate(-349.659 -371.956)" opacity="0.2"/>
  <path id="Tracé_50" data-name="Tracé 50" d="M632.08,375.916h.062a10.5,10.5,0,0,0,9.834-6.587,34.379,34.379,0,1,0-45.8,18.831,10.413,10.413,0,0,0,11.565-2.145A34.265,34.265,0,0,1,632.08,375.916Z" transform="translate(-405.38 -275.627)" fill="#e6e6e6"/>
  <circle id="Ellipse_6" data-name="Ellipse 6" cx="11.353" cy="11.353" r="11.353" transform="translate(197.686 67.175)" fill="#f9a825"/>
  <circle id="Ellipse_7" data-name="Ellipse 7" cx="1.337" cy="1.337" r="1.337" transform="translate(183.026 74.576)" fill="#3f3d56"/>
  <circle id="Ellipse_8" data-name="Ellipse 8" cx="1.337" cy="1.337" r="1.337" transform="translate(138.874 75.838)" fill="#3f3d56"/>
  <circle id="Ellipse_9" data-name="Ellipse 9" cx="1.337" cy="1.337" r="1.337" transform="translate(190.155 60.715)" fill="#3f3d56"/>
  <circle id="Ellipse_10" data-name="Ellipse 10" cx="1.337" cy="1.337" r="1.337" transform="translate(190.117 99.267)" fill="#3f3d56"/>
  <circle id="Ellipse_11" data-name="Ellipse 11" cx="1.337" cy="1.337" r="1.337" transform="translate(216.608 57.953)" fill="#3f3d56"/>
  <circle id="Ellipse_12" data-name="Ellipse 12" cx="1.337" cy="1.337" r="1.337" transform="translate(130.196 94.536)" fill="#3f3d56"/>
  <circle id="Ellipse_13" data-name="Ellipse 13" cx="1.337" cy="1.337" r="1.337" transform="translate(139.972 113.774)" fill="#3f3d56"/>
  <circle id="Ellipse_14" data-name="Ellipse 14" cx="5.046" cy="5.046" r="5.046" transform="translate(197.686 112.588)" fill="#ff6584"/>
  <path id="Tracé_51" data-name="Tracé 51" d="M653.941,497.982a3.784,3.784,0,1,1-7.569,0" transform="translate(-447.424 -380.032)" opacity="0.2"/>
  <path id="Tracé_52" data-name="Tracé 52" d="M646.371,490.884a3.784,3.784,0,1,1,7.569,0" transform="translate(-447.424 -373.565)" opacity="0.2"/>
  <ellipse id="Ellipse_15" data-name="Ellipse 15" cx="0.315" cy="0.473" rx="0.315" ry="0.473" transform="translate(200.524 115.427)" fill="#ff6584"/>
  <ellipse id="Ellipse_16" data-name="Ellipse 16" cx="0.315" cy="0.473" rx="0.315" ry="0.473" transform="translate(202.417 114.796)" fill="#ff6584"/>
  <ellipse id="Ellipse_17" data-name="Ellipse 17" cx="0.315" cy="0.473" rx="0.315" ry="0.473" transform="translate(202.417 118.896)" fill="#ff6584"/>
  <ellipse id="Ellipse_18" data-name="Ellipse 18" cx="0.315" cy="0.473" rx="0.315" ry="0.473" transform="translate(204.309 116.373)" fill="#ff6584"/>
  <ellipse id="Ellipse_19" data-name="Ellipse 19" cx="0.315" cy="0.473" rx="0.315" ry="0.473" transform="translate(203.993 119.842)" fill="#ff6584"/>
  <ellipse id="Ellipse_20" data-name="Ellipse 20" cx="0.315" cy="0.473" rx="0.315" ry="0.473" transform="translate(200.209 118.265)" fill="#ff6584"/>
  <circle id="Ellipse_21" data-name="Ellipse 21" cx="5.046" cy="5.046" r="5.046" transform="translate(207.778 99.028)" fill="#ff6584"/>
  <path id="Tracé_53" data-name="Tracé 53" d="M678.816,464.556a3.785,3.785,0,0,1-7.569,0" transform="translate(-462.207 -360.167)" opacity="0.2"/>
  <path id="Tracé_54" data-name="Tracé 54" d="M671.246,457.458a3.784,3.784,0,1,1,7.569,0" transform="translate(-462.207 -353.7)" opacity="0.2"/>
  <ellipse id="Ellipse_22" data-name="Ellipse 22" cx="0.315" cy="0.473" rx="0.315" ry="0.473" transform="translate(210.616 101.866)" fill="#ff6584"/>
  <ellipse id="Ellipse_23" data-name="Ellipse 23" cx="0.315" cy="0.473" rx="0.315" ry="0.473" transform="translate(212.509 101.235)" fill="#ff6584"/>
  <ellipse id="Ellipse_24" data-name="Ellipse 24" cx="0.315" cy="0.473" rx="0.315" ry="0.473" transform="translate(212.509 105.335)" fill="#ff6584"/>
  <ellipse id="Ellipse_25" data-name="Ellipse 25" cx="0.315" cy="0.473" rx="0.315" ry="0.473" transform="translate(214.401 102.812)" fill="#ff6584"/>
  <ellipse id="Ellipse_26" data-name="Ellipse 26" cx="0.315" cy="0.473" rx="0.315" ry="0.473" transform="translate(214.085 106.281)" fill="#ff6584"/>
  <ellipse id="Ellipse_27" data-name="Ellipse 27" cx="0.315" cy="0.473" rx="0.315" ry="0.473" transform="translate(210.301 104.704)" fill="#ff6584"/>
  <circle id="Ellipse_28" data-name="Ellipse 28" cx="5.046" cy="5.046" r="5.046" transform="translate(217.87 105.966)" fill="#ae0018"/>
  <path id="Tracé_55" data-name="Tracé 55" d="M703.691,481.658a3.785,3.785,0,0,1-7.569,0" transform="translate(-476.99 -370.331)" opacity="0.2"/>
  <path id="Tracé_56" data-name="Tracé 56" d="M696.121,474.559a3.784,3.784,0,1,1,7.569,0" transform="translate(-476.99 -363.863)" opacity="0.2"/>
  <ellipse id="Ellipse_29" data-name="Ellipse 29" cx="0.315" cy="0.473" rx="0.315" ry="0.473" transform="translate(220.708 108.804)" fill="#ae0018"/>
  <ellipse id="Ellipse_30" data-name="Ellipse 30" cx="0.315" cy="0.473" rx="0.315" ry="0.473" transform="translate(222.6 108.173)" fill="#ae0018"/>
  <ellipse id="Ellipse_31" data-name="Ellipse 31" cx="0.315" cy="0.473" rx="0.315" ry="0.473" transform="translate(222.6 112.273)" fill="#ae0018"/>
  <ellipse id="Ellipse_32" data-name="Ellipse 32" cx="0.315" cy="0.473" rx="0.315" ry="0.473" transform="translate(224.493 109.75)" fill="#ae0018"/>
  <ellipse id="Ellipse_33" data-name="Ellipse 33" cx="0.315" cy="0.473" rx="0.315" ry="0.473" transform="translate(224.177 113.22)" fill="#ae0018"/>
  <ellipse id="Ellipse_34" data-name="Ellipse 34" cx="0.315" cy="0.473" rx="0.315" ry="0.473" transform="translate(220.393 111.643)" fill="#ae0018"/>
  <circle id="Ellipse_35" data-name="Ellipse 35" cx="5.046" cy="5.046" r="5.046" transform="translate(192.64 106.597)" fill="#ae0018"/>
  <path id="Tracé_57" data-name="Tracé 57" d="M641.5,483.213a3.784,3.784,0,1,1-7.569,0" transform="translate(-440.033 -371.255)" opacity="0.2"/>
  <path id="Tracé_58" data-name="Tracé 58" d="M633.934,476.114a3.785,3.785,0,0,1,7.569,0" transform="translate(-440.033 -364.787)" opacity="0.2"/>
  <ellipse id="Ellipse_36" data-name="Ellipse 36" cx="0.315" cy="0.473" rx="0.315" ry="0.473" transform="translate(195.478 109.435)" fill="#ae0018"/>
  <ellipse id="Ellipse_37" data-name="Ellipse 37" cx="0.315" cy="0.473" rx="0.315" ry="0.473" transform="translate(197.37 108.804)" fill="#ae0018"/>
  <ellipse id="Ellipse_38" data-name="Ellipse 38" cx="0.315" cy="0.473" rx="0.315" ry="0.473" transform="translate(197.37 112.904)" fill="#ae0018"/>
  <ellipse id="Ellipse_39" data-name="Ellipse 39" cx="0.315" cy="0.473" rx="0.315" ry="0.473" transform="translate(199.263 110.381)" fill="#ae0018"/>
  <ellipse id="Ellipse_40" data-name="Ellipse 40" cx="0.315" cy="0.473" rx="0.315" ry="0.473" transform="translate(198.947 113.85)" fill="#ae0018"/>
  <ellipse id="Ellipse_41" data-name="Ellipse 41" cx="0.315" cy="0.473" rx="0.315" ry="0.473" transform="translate(195.163 112.273)" fill="#ae0018"/>
  <circle id="Ellipse_42" data-name="Ellipse 42" cx="5.046" cy="5.046" r="5.046" transform="translate(203.993 108.804)" fill="#ae0018"/>
  <path id="Tracé_59" data-name="Tracé 59" d="M669.488,488.654a3.784,3.784,0,1,1-7.569,0" transform="translate(-456.664 -374.489)" opacity="0.2"/>
  <path id="Tracé_60" data-name="Tracé 60" d="M661.918,481.555a3.785,3.785,0,0,1,7.569,0" transform="translate(-456.663 -368.021)" opacity="0.2"/>
  <ellipse id="Ellipse_43" data-name="Ellipse 43" cx="0.315" cy="0.473" rx="0.315" ry="0.473" transform="translate(206.831 111.643)" fill="#ae0018"/>
  <ellipse id="Ellipse_44" data-name="Ellipse 44" cx="0.315" cy="0.473" rx="0.315" ry="0.473" transform="translate(208.724 111.012)" fill="#ae0018"/>
  <ellipse id="Ellipse_45" data-name="Ellipse 45" cx="0.315" cy="0.473" rx="0.315" ry="0.473" transform="translate(208.724 115.112)" fill="#ae0018"/>
  <ellipse id="Ellipse_46" data-name="Ellipse 46" cx="0.315" cy="0.473" rx="0.315" ry="0.473" transform="translate(210.616 112.589)" fill="#ae0018"/>
  <ellipse id="Ellipse_47" data-name="Ellipse 47" cx="0.315" cy="0.473" rx="0.315" ry="0.473" transform="translate(210.301 116.058)" fill="#ae0018"/>
  <ellipse id="Ellipse_48" data-name="Ellipse 48" cx="0.315" cy="0.473" rx="0.315" ry="0.473" transform="translate(206.516 114.481)" fill="#ae0018"/>
  <circle id="Ellipse_49" data-name="Ellipse 49" cx="5.046" cy="5.046" r="5.046" transform="translate(211.878 114.165)" fill="#ff6584"/>
  <path id="Tracé_61" data-name="Tracé 61" d="M688.921,501.869a3.784,3.784,0,1,1-7.569,0" transform="translate(-468.213 -382.342)" opacity="0.2"/>
  <path id="Tracé_62" data-name="Tracé 62" d="M681.352,494.77a3.785,3.785,0,0,1,7.569,0" transform="translate(-468.213 -375.874)" opacity="0.2"/>
  <ellipse id="Ellipse_50" data-name="Ellipse 50" cx="0.315" cy="0.473" rx="0.315" ry="0.473" transform="translate(214.716 117.004)" fill="#ff6584"/>
  <ellipse id="Ellipse_51" data-name="Ellipse 51" cx="0.315" cy="0.473" rx="0.315" ry="0.473" transform="translate(216.608 116.373)" fill="#ff6584"/>
  <ellipse id="Ellipse_52" data-name="Ellipse 52" cx="0.315" cy="0.473" rx="0.315" ry="0.473" transform="translate(216.608 120.473)" fill="#ff6584"/>
  <ellipse id="Ellipse_53" data-name="Ellipse 53" cx="0.315" cy="0.473" rx="0.315" ry="0.473" transform="translate(218.5 117.95)" fill="#ff6584"/>
  <ellipse id="Ellipse_54" data-name="Ellipse 54" cx="0.315" cy="0.473" rx="0.315" ry="0.473" transform="translate(218.185 121.419)" fill="#ff6584"/>
  <ellipse id="Ellipse_55" data-name="Ellipse 55" cx="0.315" cy="0.473" rx="0.315" ry="0.473" transform="translate(214.401 119.842)" fill="#ff6584"/>
  <circle id="Ellipse_56" data-name="Ellipse 56" cx="1.337" cy="1.337" r="1.337" transform="translate(150.695 98.636)" fill="#3f3d56"/>
  <path id="Tracé_63" data-name="Tracé 63" d="M417.292,346.336l-32.122-8.908,1.23-4.571,32.122,8.909Z" transform="translate(-228.904 -197.814)" fill="#f9a825"/>
  <path id="Tracé_64" data-name="Tracé 64" d="M559.96,562.63a88.552,88.552,0,0,1-33.3,0v-4.738a101.83,101.83,0,0,0,33.3,0Z" transform="translate(-376.281 -415.636)" fill="#f9a825"/>
  <path id="Tracé_65" data-name="Tracé 65" d="M568.4,527.6a88.55,88.55,0,0,1-33.3,0v-4.738a101.83,101.83,0,0,0,33.3,0Z" transform="translate(-381.295 -394.815)" fill="#f9a825"/>
  <path id="Tracé_66" data-name="Tracé 66" d="M596.78,541.609a88.555,88.555,0,0,1-33.3,0v-4.738a101.83,101.83,0,0,0,33.3,0Z" transform="translate(-398.163 -403.143)" fill="#f9a825"/>
  <path id="Tracé_67" data-name="Tracé 67" d="M603.684,554.845a88.553,88.553,0,0,1-33.3,0v-4.738a101.832,101.832,0,0,0,33.3,0Z" transform="translate(-402.266 -411.009)" fill="#f9a825"/>
  <path id="Tracé_68" data-name="Tracé 68" d="M471.291,364.977l-32.853,5.518-.762-4.675,32.853-5.518Z" transform="translate(-260.108 -214.125)" fill="#f9a825"/>
  <path id="Tracé_69" data-name="Tracé 69" d="M617.257,574.271A89.245,89.245,0,0,1,587,588.383l-1.949-4.305a102.627,102.627,0,0,0,30.258-14.112Z" transform="translate(-410.982 -422.811)" fill="#f9a825"/>
  <path id="Tracé_70" data-name="Tracé 70" d="M610.511,538.86a89.243,89.243,0,0,1-30.258,14.112l-1.949-4.305a102.625,102.625,0,0,0,30.258-14.112Z" transform="translate(-406.972 -401.767)" fill="#f9a825"/>
  <path id="Tracé_71" data-name="Tracé 71" d="M642.065,539.566a89.246,89.246,0,0,1-30.258,14.112l-1.949-4.305a102.628,102.628,0,0,0,30.258-14.112Z" transform="translate(-425.725 -402.187)" fill="#f9a825"/>
  <path id="Tracé_72" data-name="Tracé 72" d="M653.784,548.666a89.243,89.243,0,0,1-30.258,14.112l-1.949-4.305a102.627,102.627,0,0,0,30.258-14.112Z" transform="translate(-432.689 -407.595)" fill="#f9a825"/>
  <rect id="Rectangle_29" data-name="Rectangle 29" width="1.577" height="1.577" transform="translate(179.709 131.826)" fill="#00bf71"/>
  <rect id="Rectangle_30" data-name="Rectangle 30" width="1.577" height="1.577" transform="translate(184.44 159.264)" fill="#00bf71"/>
  <rect id="Rectangle_31" data-name="Rectangle 31" width="1.577" height="1.577" transform="translate(159.21 131.826)" fill="#00bf71"/>
  <rect id="Rectangle_32" data-name="Rectangle 32" width="1.577" height="1.577" transform="translate(195.794 151.38)" fill="#00bf71"/>
  <rect id="Rectangle_33" data-name="Rectangle 33" width="1.577" height="1.577" transform="translate(196.74 142.234)" fill="#00bf71"/>
  <rect id="Rectangle_34" data-name="Rectangle 34" width="2.208" height="1.261" transform="translate(170.477 136.675) rotate(34.156)" fill="#00bf71"/>
  <rect id="Rectangle_35" data-name="Rectangle 35" width="2.208" height="1.261" transform="translate(189.084 140.144) rotate(34.156)" fill="#00bf71"/>
  <rect id="Rectangle_36" data-name="Rectangle 36" width="2.208" height="1.261" transform="translate(166.377 146.136) rotate(34.156)" fill="#00bf71"/>
  <rect id="Rectangle_37" data-name="Rectangle 37" width="2.208" height="1.261" transform="translate(181.011 145.459) rotate(124.156)" fill="#00bf71"/>
  <rect id="Rectangle_38" data-name="Rectangle 38" width="2.208" height="1.261" transform="translate(189.526 147.666) rotate(124.156)" fill="#00bf71"/>
  <rect id="Rectangle_39" data-name="Rectangle 39" width="2.208" height="1.261" transform="translate(212.233 140.097) rotate(124.156)" fill="#00bf71"/>
  <rect id="Rectangle_40" data-name="Rectangle 40" width="360.268" height="0.909" transform="translate(0 196.057)" fill="#3f3d56"/>
</svg>
