<?xml version="1.0" encoding="UTF-8"?>
<svg id="Calque_2" data-name="Calque 2" xmlns="http://www.w3.org/2000/svg" viewBox="0 0 5.47 5.64">
  <defs>
    <style>
      .cls-1 {
        fill: #fff;
      }
    </style>
  </defs>
  <g id="Calque_1-2" data-name="Calque 1">
    <path class="cls-1" d="m4.97,3.3H.11c-.03-.06-.06-.14-.08-.22s-.03-.17-.03-.26c0-.18.05-.31.14-.39s.21-.13.35-.13h4.86c.02.06.05.13.08.21s.04.17.04.27c0,.17-.04.3-.13.38-.09.09-.21.13-.37.13ZM3.31.58v4.98c-.06.02-.14.04-.23.06-.09.02-.18.02-.29.02-.2,0-.35-.04-.45-.12s-.15-.23-.15-.46V.1c.06-.02.14-.05.23-.07s.19-.03.31-.03c.19,0,.34.04.43.13.1.08.14.23.14.45Z"/>
  </g>
</svg>