<svg xmlns="http://www.w3.org/2000/svg" width="444.523" height="310.676" viewBox="0 0 444.523 310.676">
  <g id="undraw_special_event_-4-aj8" transform="translate(-32.631 -91.198)">
    <path id="Tracé_74" data-name="Tracé 74" d="M685.6,454.107V555.945h16.012V463.074h64.049v92.871h16.012V352.269H765.664c-5.306,0-13.45,27.634-13.45,55.4,0,20.93,2.444,38.868,5.92,46.436Zm80.061,0h-.156c.052-.114.1-.234.156-.353Z" transform="translate(-381.512 -202.156)" fill="#3f3d56"/>
    <path id="Tracé_75" data-name="Tracé 75" d="M777.74,255.342h0c-13.143,0-23.8,11.825-23.8,26.411v18.532h5.7l3.3-6.866-.825,6.866h36.635l3-6.242-.75,6.242h4.125V285.734C805.126,268.949,792.865,255.342,777.74,255.342Z" transform="translate(-414.311 -155.635)" fill="#2f2e41"/>
    <path id="Tracé_76" data-name="Tracé 76" d="M673.355,488.168l-14.612,6.21-50.777,41.279a14.945,14.945,0,0,0-3.288,8.037c-.365,4.749-15.708,29.589-10.228,32.877s25.206,13.151,26.3,6.575,6.941-34.7,6.941-34.7l48.95-43.836Z" transform="translate(-337.195 -267.382)" fill="#2f2e41"/>
    <path id="Tracé_77" data-name="Tracé 77" d="M602.817,658.917l-6.21,18.265s6.575,6.941,3.288,12.786v20.091H594.78l-1.461-10.594s-5.825,10.46-8.767,10.594c-6.168.281-18.381,2.474-18.747-.813s9.249-6.493,9.249-6.493l10.228-28.128,4.384-17.169Z" transform="translate(-324.009 -348.633)" fill="#2f2e41"/>
    <path id="Tracé_78" data-name="Tracé 78" d="M737.5,462.853s3.288,32.146-6.21,37.991-51.507,24.475-51.507,24.475,17.9,16.8,14.247,20.822-20.092,14.977-22.283,12.786-26.667-28.493-23.745-36.9,43.471-35.8,43.471-35.8l4.749-17.169,1.461-13.881,15.343-9.863Z" transform="translate(-363.348 -246.816)" fill="#2f2e41"/>
    <circle id="Ellipse_60" data-name="Ellipse 60" cx="15.229" cy="15.229" r="15.229" transform="translate(342.186 110.735)" fill="#ffb9b9"/>
    <path id="Tracé_79" data-name="Tracé 79" d="M794.657,317.825s-.731,13.881,10.594,18.265-28.128,32.877-28.128,32.877V337.186s5.114-5.48,0-13.881Z" transform="translate(-425.437 -185.624)" fill="#ffb9b9"/>
    <path id="Tracé_80" data-name="Tracé 80" d="M838.629,443.211l-2.922,14.247-8.767,48.95s7.306,20.822-2.557,20.457-5.114-22.649-5.114-22.649l5.114-40.548V447.96Z" transform="translate(-445.117 -245.804)" fill="#ffb9b9"/>
    <path id="Tracé_81" data-name="Tracé 81" d="M715.131,429.865l-3.288,12.785-14.977,36.165s-10.228,17.169-1.827,16.8,8.4-16.8,8.4-16.8l17.169-29.224V433.153Z" transform="translate(-384.451 -239.399)" fill="#ffb9b9"/>
    <path id="Tracé_82" data-name="Tracé 82" d="M721.026,634.978,733.081,646.3s8.4-1.827,11.69,8.037,5.48,16.073,5.48,16.073l-4.384,2.557-5.48-7.671s-3.288,13.881-6.575,14.977-19.726,8.4-18.265,0l8.037-11.69s1.1-13.151-2.192-14.247-12.055-12.055-12.055-12.055Z" transform="translate(-392.903 -337.845)" fill="#2f2e41"/>
    <path id="Tracé_83" data-name="Tracé 83" d="M782.973,484.855s-34.338-12.42-36.53-11.324a16.475,16.475,0,0,1-5.145,1.335l.031-4.988s11.324-4.018,17.534-1.461S784.069,482.3,784.069,482.3Z" transform="translate(-408.243 -257.493)" fill="#3f3d56"/>
    <path id="Tracé_84" data-name="Tracé 84" d="M762.094,376.657s9.863-11.324,12.785-18.265a17.934,17.934,0,0,1,9.481-9.323s21.935,4.939,21.57,13.706-13.881,22.283-13.881,22.283,1.826,48.585-8.037,47.854a21.155,21.155,0,0,1-4.384-8.767c-1.1-5.114-35.069-10.594-35.069-10.594s-2.922,5.114-3.288,2.922,2.922-55.891,2.922-55.891l17.42-11.514Z" transform="translate(-408.217 -200.62)" fill="#d0cde1"/>
    <path id="Tracé_85" data-name="Tracé 85" d="M843.739,368.044l.245.137a5.04,5.04,0,0,1,2.573,4.4l0,27.11a5.08,5.08,0,0,0,1.807,3.866c1.407,1.2,2.712,2.922.019,3.819-4.384,1.461-21.553,8.767-21.918,6.21s-1.1-5.48,0-5.48c.858,0,5.97-26.2,10.077-37.395a5.041,5.041,0,0,1,7.2-2.664Z" transform="translate(-448.84 -209.418)" fill="#d0cde1"/>
    <path id="Tracé_86" data-name="Tracé 86" d="M741.508,368.752l-5.114,1.461-5.845,25.206s-6.941,1.461-4.749,4.018,11.324,9.133,11.324,9.133Z" transform="translate(-400.599 -210.067)" fill="#d0cde1"/>
    <path id="Tracé_87" data-name="Tracé 87" d="M788.14,264.694a12.481,12.481,0,0,0-9.848-5.025h-.467c-9.009,0-16.311,8.152-16.311,18.207h3.018l.487-3.711.715,3.711h17.9l1.5-3.139-.375,3.139h3.522q2.465,12.243-7.084,24.486h6l3-6.278-.75,6.278h11.437l2.25-14.44C803.135,277.107,796.851,267.936,788.14,264.694Z" transform="translate(-417.945 -157.712)" fill="#2f2e41"/>
    <path id="Tracé_88" data-name="Tracé 88" d="M200.37,489.422c3.843-8.367,6.546-28.2,6.546-51.342,0-30.7-9-61.257-14.872-61.257h-17.7v225.2h17.7V499.336h70.817V602.021h17.7v-112.6Zm-8.326-.39c.057.131.114.264.172.39h-.172Z" transform="translate(-136.127 -213.941)" fill="#3f3d56"/>
    <path id="Tracé_89" data-name="Tracé 89" d="M359.093,514.342s21.322,8.841,14.561,14.041-20.8-6.24-20.282-7.8-2.08-5.2-2.08-5.2Z" transform="translate(-221.056 -279.944)" fill="#9f616a"/>
    <path id="Tracé_90" data-name="Tracé 90" d="M327.892,380.342l6.761,6.241,1.56,18.2,5.2,19.242s8.841,18.2,7.281,21.842,1.56,4.68,1.56,4.68l-11.961,4.68s-13-14.561-13-17.681S327.892,380.342,327.892,380.342Z" transform="translate(-208.577 -215.63)" fill="#575a88"/>
    <path id="Tracé_91" data-name="Tracé 91" d="M327.892,380.342l6.761,6.241,1.56,18.2,5.2,19.242s8.841,18.2,7.281,21.842,1.56,4.68,1.56,4.68l-11.961,4.68s-13-14.561-13-17.681S327.892,380.342,327.892,380.342Z" transform="translate(-208.577 -215.63)" opacity="0.1"/>
    <path id="Tracé_92" data-name="Tracé 92" d="M450.395,736.022s-2.6,11.961-3.12,13,9.881,4.68,9.881,4.68l12.481-8.841s-5.2-11.441-5.2-13.521Z" transform="translate(-267.115 -384.095)" fill="#575a88"/>
    <path id="Tracé_93" data-name="Tracé 93" d="M288.637,516.342l3.64,4.16s75.406,9.361,76.966,23.922,12.481,83.207,6.24,85.287-22.362,9.881-22.362,5.72-10.4-61.365-8.321-71.766c0,0-89.967-11.441-92.047-24.442s2.08-18.721,2.08-18.721Z" transform="translate(-173.483 -280.904)" fill="#2f2e41"/>
    <path id="Tracé_94" data-name="Tracé 94" d="M288.637,516.342l3.64,4.16s75.406,9.361,76.966,23.922,12.481,83.207,6.24,85.287-22.362,9.881-22.362,5.72-10.4-61.365-8.321-71.766c0,0-89.967-11.441-92.047-24.442s2.08-18.721,2.08-18.721Z" transform="translate(-173.483 -280.904)" opacity="0.1"/>
    <path id="Tracé_95" data-name="Tracé 95" d="M445.992,756.8s-2.08-4.68-3.12-3.12-4.68,19.762-1.04,19.762,36.923,8.321,41.6,7.281,13.521.52,12.481-4.68-6.241-5.72-6.241-5.72-19.242-11.441-20.282-17.161-6.761-2.6-6.761-2.6v3.64S451.713,762.519,445.992,756.8Z" transform="translate(-263.753 -392.911)" fill="#2f2e41"/>
    <path id="Tracé_96" data-name="Tracé 96" d="M255.618,301.175s3.64,17.681-4.16,19.242,9.881,11.961,9.881,11.961l11.441,6.241L281.1,330.3s-7.541-15.341-1.82-26.782S255.618,301.175,255.618,301.175Z" transform="translate(-172.186 -175.986)" fill="#9f616a"/>
    <path id="Tracé_97" data-name="Tracé 97" d="M281.1,330.3l-8.321,8.321-11.441-6.241s-17.681-10.4-9.881-11.961c5.018-1,5.3-8.68,4.868-14.026a48.354,48.354,0,0,0-.707-5.216s29.382-9.1,23.662,2.34a19.949,19.949,0,0,0-1.789,5.6C275.739,319.392,281.1,330.3,281.1,330.3Z" transform="translate(-172.186 -175.986)" fill="#9f616a"/>
    <path id="Tracé_98" data-name="Tracé 98" d="M265.433,700.928v11.961h19.762l1.56-4.68-2.08-12.481Z" transform="translate(-127.397 -333.921)" fill="#575a88"/>
    <path id="Tracé_99" data-name="Tracé 99" d="M209.292,530.582s0,30.682,12.481,31.723,57.2,6.761,57.2,6.761,2.6,50.964,7.281,67.605.52,17.681,4.68,18.721,21.842-2.6,21.322-6.241-2.6-95.688-2.6-95.688,4.68-19.762-57.725-29.122Z" transform="translate(-152.902 -284.744)" fill="#2f2e41"/>
    <path id="Tracé_100" data-name="Tracé 100" d="M362.91,777.567s-3.12-6.76-3.64-4.68-6.761,20.282-.52,21.842,26,9.881,39,9.361,14.561-1.04,14.561-1.04,3.64-5.2-1.04-8.321-23.922-21.322-24.962-23.4-8.841-3.64-8.841,0S366.55,782.247,362.91,777.567Z" transform="translate(-223.314 -402.238)" fill="#2f2e41"/>
    <path id="Tracé_101" data-name="Tracé 101" d="M284.954,303.515a19.951,19.951,0,0,0-1.789,5.6c-2.59,1.565-4.322,1.165-7.572,1.165-4.821,0-6.766-6.163-9.881-9.361-.244-2.969-4.42.26-4.42.26S290.674,292.074,284.954,303.515Z" transform="translate(-177.86 -175.986)" opacity="0.1"/>
    <circle id="Ellipse_61" data-name="Ellipse 61" cx="17.161" cy="17.161" r="17.161" transform="translate(79.272 99.707)" fill="#9f616a"/>
    <path id="Tracé_102" data-name="Tracé 102" d="M273.036,366.8s-2.6,18.721-4.16,25.482-3.64,37.963-4.68,42.123-7.281,5.2-19.762,3.64a23.462,23.462,0,0,0-2.361-.177c-7.686-.244-16.48,2.631-24.619,4.888a61.886,61.886,0,0,1-13.063,2.569c-5.928.27-7.665-6.3-7.463-13.417.192-6.62,2.07-13.719,3.822-16.225,3.157-4.514.052-45.041,1.217-58.406v-.005a9.684,9.684,0,0,1,.863-3.994c3.12-4.16,23.4-14.561,25.674-14.14s21.649,12.58,21.649,12.58c4.68,0,4.53-5.076,4.53-5.076s3.271,6.116,9.512,7.676S273.036,366.8,273.036,366.8Z" transform="translate(-146.96 -195.849)" fill="#575a88"/>
    <path id="Tracé_103" data-name="Tracé 103" d="M272.019,521.984s33.5,1.067,27.631,5.047-31.87,7.62-32.39,2.42S272.019,521.984,272.019,521.984Z" transform="translate(-180.707 -283.612)" fill="#9f616a"/>
    <path id="Tracé_104" data-name="Tracé 104" d="M242.087,454.292c.109,2-5.263,6.5-7,9.538-.962,1.685-8.409-.536-17.619-4.649a180.661,180.661,0,0,1-20.526-10.848c.192-6.62,2.07-13.719,3.822-16.225,3.157-4.514.052-45.041,1.217-58.406V373.7a5.766,5.766,0,0,1,.863-.354h6.241c21.322,9.881-3.12,52.524-3.12,52.524s32.243,26.522,35.363,27.562A.935.935,0,0,1,242.087,454.292Z" transform="translate(-146.975 -212.27)" opacity="0.1"/>
    <path id="Tracé_105" data-name="Tracé 105" d="M193.085,367.342h-6.24s-5.72,1.56-10.4,11.961-21.842,42.643-6.761,55.124,47.324,27.042,49.4,23.4,9.361-9.361,6.24-10.4-35.363-27.562-35.363-27.562S214.407,377.223,193.085,367.342Z" transform="translate(-130.975 -209.39)" fill="#575a88"/>
    <path id="Tracé_106" data-name="Tracé 106" d="M260.835,256.664s.753-10.426,10.044-6.175,8.685-7.466,5.877-9.537-2.719-2.583-12.987-1.2-30.2,3.732-23.759,24.38,12.284,15.336,12.284,15.336-5.124-18.58.068-15.04l5.192,3.54,2.74-.58Z" transform="translate(-167.042 -147.782)" fill="#2f2e41"/>
    <path id="Tracé_107" data-name="Tracé 107" d="M730.811,545.974c0-9.387-69.753-17-155.8-17s-155.8,7.609-155.8,17c0,3.638,10.484,7.009,28.327,9.773V672.028h8.5V556.946c28.579,3.684,71.268,6.024,118.972,6.024,48.1,0,91.1-2.378,119.681-6.115V672.028h8.5V555.635C720.6,552.892,730.811,549.563,730.811,545.974Z" transform="translate(-253.657 -286.969)" fill="#3f3d56"/>
    <ellipse id="Ellipse_62" data-name="Ellipse 62" cx="31.723" cy="7.801" rx="31.723" ry="7.801" transform="translate(309.155 243.758)" fill="#f2f2f2"/>
    <ellipse id="Ellipse_63" data-name="Ellipse 63" cx="26.002" cy="6.394" rx="26.002" ry="6.394" transform="translate(314.875 245.165)" fill="#d0cde1"/>
    <ellipse id="Ellipse_64" data-name="Ellipse 64" cx="31.723" cy="7.801" rx="31.723" ry="7.801" transform="translate(191.105 249.999)" fill="#f2f2f2"/>
    <ellipse id="Ellipse_65" data-name="Ellipse 65" cx="26.002" cy="6.394" rx="26.002" ry="6.394" transform="translate(196.826 251.405)" fill="#d0cde1"/>
    <ellipse id="Ellipse_66" data-name="Ellipse 66" cx="15.123" cy="2.388" rx="15.123" ry="2.388" transform="translate(325.016 246.233)" fill="#9f616a"/>
    <ellipse id="Ellipse_67" data-name="Ellipse 67" cx="4.776" cy="2.587" rx="4.776" ry="2.587" transform="translate(327.305 242.551)" fill="#ae0018"/>
    <ellipse id="Ellipse_68" data-name="Ellipse 68" cx="4.776" cy="2.587" rx="4.776" ry="2.587" transform="translate(325.514 242.551)" fill="#ae0018"/>
    <ellipse id="Ellipse_69" data-name="Ellipse 69" cx="4.776" cy="2.587" rx="4.776" ry="2.587" transform="translate(346.407 243.148)" fill="#ae0018"/>
    <ellipse id="Ellipse_70" data-name="Ellipse 70" cx="4.776" cy="2.587" rx="4.776" ry="2.587" transform="translate(335.463 242.551)" fill="#ae0018"/>
    <ellipse id="Ellipse_71" data-name="Ellipse 71" cx="4.776" cy="2.587" rx="4.776" ry="2.587" transform="translate(343.622 242.551)" fill="#ae0018"/>
    <path id="Tracé_108" data-name="Tracé 108" d="M755.848,520.53q-12.947,4.393-29.052,0v-.4a11.867,11.867,0,0,1,11.269-11.86,74.523,74.523,0,0,1,7.683.01,10.724,10.724,0,0,1,10.1,10.732Z" transform="translate(-401.283 -276.983)" fill="#3f3d56"/>
    <path id="Tracé_109" data-name="Tracé 109" d="M751.7,547.4a95.457,95.457,0,0,1-19.184,0,6.129,6.129,0,0,1-5.531-6.09h30.246A6.129,6.129,0,0,1,751.7,547.4Z" transform="translate(-401.375 -292.887)" fill="#3f3d56"/>
    <path id="Tracé_110" data-name="Tracé 110" d="M743.036,515.076a5.691,5.691,0,0,1-4.378,0A5.691,5.691,0,0,1,743.036,515.076Z" transform="translate(-406.976 -280.087)" fill="#d0cde1"/>
    <path id="Tracé_111" data-name="Tracé 111" d="M751.454,518.52a5.691,5.691,0,0,1-4.378,0,5.691,5.691,0,0,1,4.378,0Z" transform="translate(-411.016 -281.74)" fill="#d0cde1"/>
    <path id="Tracé_112" data-name="Tracé 112" d="M752.22,512.4a5.691,5.691,0,0,1-4.378,0A5.691,5.691,0,0,1,752.22,512.4Z" transform="translate(-411.384 -278.801)" fill="#d0cde1"/>
    <path id="Tracé_113" data-name="Tracé 113" d="M767.908,512.4a5.691,5.691,0,0,1-4.378,0A5.691,5.691,0,0,1,767.908,512.4Z" transform="translate(-418.913 -278.801)" fill="#d0cde1"/>
    <path id="Tracé_114" data-name="Tracé 114" d="M763.7,515.842a5.691,5.691,0,0,1-4.378,0A5.691,5.691,0,0,1,763.7,515.842Z" transform="translate(-416.893 -280.454)" fill="#d0cde1"/>
    <ellipse id="Ellipse_72" data-name="Ellipse 72" cx="15.123" cy="2.388" rx="15.123" ry="2.388" transform="translate(207.487 252.473)" fill="#9f616a"/>
    <ellipse id="Ellipse_73" data-name="Ellipse 73" cx="4.776" cy="2.587" rx="4.776" ry="2.587" transform="translate(209.775 248.791)" fill="#ae0018"/>
    <ellipse id="Ellipse_74" data-name="Ellipse 74" cx="4.776" cy="2.587" rx="4.776" ry="2.587" transform="translate(207.984 248.791)" fill="#ae0018"/>
    <ellipse id="Ellipse_75" data-name="Ellipse 75" cx="4.776" cy="2.587" rx="4.776" ry="2.587" transform="translate(228.878 249.388)" fill="#ae0018"/>
    <ellipse id="Ellipse_76" data-name="Ellipse 76" cx="4.776" cy="2.587" rx="4.776" ry="2.587" transform="translate(217.934 248.791)" fill="#ae0018"/>
    <ellipse id="Ellipse_77" data-name="Ellipse 77" cx="4.776" cy="2.587" rx="4.776" ry="2.587" transform="translate(226.092 248.791)" fill="#ae0018"/>
    <path id="Tracé_115" data-name="Tracé 115" d="M529.848,532.53q-12.947,4.393-29.052,0v-.4a11.867,11.867,0,0,1,11.269-11.859,74.523,74.523,0,0,1,7.683.01,10.723,10.723,0,0,1,10.1,10.732Z" transform="translate(-292.812 -282.743)" fill="#3f3d56"/>
    <path id="Tracé_116" data-name="Tracé 116" d="M525.7,559.4a95.447,95.447,0,0,1-19.184,0,6.129,6.129,0,0,1-5.531-6.09h30.246A6.129,6.129,0,0,1,525.7,559.4Z" transform="translate(-292.904 -298.647)" fill="#3f3d56"/>
    <path id="Tracé_117" data-name="Tracé 117" d="M517.036,527.076a5.691,5.691,0,0,1-4.378,0A5.691,5.691,0,0,1,517.036,527.076Z" transform="translate(-298.505 -285.846)" fill="#d0cde1"/>
    <path id="Tracé_118" data-name="Tracé 118" d="M525.454,530.52a5.691,5.691,0,0,1-4.378,0A5.691,5.691,0,0,1,525.454,530.52Z" transform="translate(-302.546 -287.499)" fill="#d0cde1"/>
    <path id="Tracé_119" data-name="Tracé 119" d="M526.22,524.4a5.691,5.691,0,0,1-4.378,0A5.691,5.691,0,0,1,526.22,524.4Z" transform="translate(-302.913 -284.561)" fill="#d0cde1"/>
    <path id="Tracé_120" data-name="Tracé 120" d="M541.908,524.4a5.691,5.691,0,0,1-4.378,0A5.691,5.691,0,0,1,541.908,524.4Z" transform="translate(-310.443 -284.561)" fill="#d0cde1"/>
    <path id="Tracé_121" data-name="Tracé 121" d="M537.7,527.842a5.691,5.691,0,0,1-4.378,0A5.691,5.691,0,0,1,537.7,527.842Z" transform="translate(-308.423 -286.214)" fill="#d0cde1"/>
    <path id="Tracé_122" data-name="Tracé 122" d="M794.661,543.277l.073,1.611.093,2.089s-9.6.542-11.529,2.585a1.18,1.18,0,0,0-.123.142l-3.844-.841-.01-1.893.156-.085.083-.043A34.983,34.983,0,0,1,794.661,543.277Z" transform="translate(-426.493 -293.832)" fill="#ae0018"/>
    <path id="Tracé_123" data-name="Tracé 123" d="M794.8,543.277l.073,1.611c-4.255.132-12.308,2.668-12.308,2.668l-2.948-.672a34.885,34.885,0,0,1,15.183-3.607Z" transform="translate(-426.637 -293.832)" opacity="0.1"/>
    <path id="Tracé_124" data-name="Tracé 124" d="M779.56,550.13l2.865.715.872,2.006a1.17,1.17,0,0,0-.123.142l-3.843-.841-.01-1.893.156-.085Z" transform="translate(-426.493 -297.121)" fill="#fff" opacity="0.1"/>
    <path id="Tracé_125" data-name="Tracé 125" d="M571.661,556.277l.073,1.611.093,2.089s-9.6.542-11.529,2.585a1.175,1.175,0,0,0-.123.142l-3.844-.841-.01-1.893.156-.085.083-.043A34.984,34.984,0,0,1,571.661,556.277Z" transform="translate(-319.462 -300.071)" fill="#ae0018"/>
    <path id="Tracé_126" data-name="Tracé 126" d="M571.8,556.277l.073,1.611c-4.255.132-12.308,2.668-12.308,2.668l-2.948-.672a34.886,34.886,0,0,1,15.183-3.607Z" transform="translate(-319.606 -300.071)" opacity="0.1"/>
    <path id="Tracé_127" data-name="Tracé 127" d="M556.56,563.13l2.865.715.872,2.006a1.18,1.18,0,0,0-.123.142l-3.843-.841-.01-1.893.156-.085Z" transform="translate(-319.462 -303.361)" fill="#fff" opacity="0.1"/>
    <path id="Tracé_128" data-name="Tracé 128" d="M905.33,429.217a9.6,9.6,0,0,0-2.833-1.957V407.052a.893.893,0,0,0-.893-.893h-5a.893.893,0,0,0-.893.893v19.819a9.069,9.069,0,0,0-6.214,8.6v43.346a3.972,3.972,0,0,0,3.972,3.972h10.715a3.954,3.954,0,0,0,3.954-3.954V435.988a9.545,9.545,0,0,0-2.805-6.771Z" transform="translate(-479.371 -228.021)" fill="#3f3d56"/>
    <rect id="Rectangle_41" data-name="Rectangle 41" width="18.641" height="24.625" transform="translate(410.124 213.809)" fill="#ae0018"/>
    <path id="Tracé_129" data-name="Tracé 129" d="M908.263,407.541h-.4v-.487a.893.893,0,0,0-.893-.893h-5a.893.893,0,0,0-.893.893v.487h-.4v2.071h.4V420.2h6.789V409.612h.4Z" transform="translate(-484.734 -228.021)" fill="#ae0018"/>
    <path id="Tracé_130" data-name="Tracé 130" d="M613.995,482.327c-.493-1.053-.883-1.8-1.019-2.054-8.367,2.065-13.95.32-14.831.011a49.2,49.2,0,0,0-4.2,10.993c-.981,4.494-.412,7.507,1.693,8.955l.062.044.014.009c2.323,1.531,4.54,2.887,6.587,4.03q.414.23.78.428l.026.014.018.023a12.462,12.462,0,0,1,.784,1.106,4.349,4.349,0,0,1,.795,2.15v22.322l-.141,0c-5.337.109-8.641,1.014-8.641,1.789,0,.851,3.961,1.8,9.646,1.8s9.646-.948,9.646-1.8c0-.764-3.248-1.664-8.495-1.785l-.142,0,.132-20.648a9.107,9.107,0,0,1,.95-4.029c.106-.21.22-.415.338-.608.1-.155.2-.307.3-.45l.019-.026.029-.016q.394-.215.837-.467l.035-.019c1.937-1.094,4.025-2.377,6.205-3.814,1.947-1.283,2.625-3.877,2.015-7.709A41.158,41.158,0,0,0,613.995,482.327Z" transform="translate(-337.294 -263.593)" fill="#d0cde1"/>
    <path id="Tracé_131" data-name="Tracé 131" d="M615.5,510.18c-2.286,1.507-4.173,2.637-5.616,3.451h0a32.87,32.87,0,0,0-6.314.177c-1.48-.826-3.476-2.01-5.931-3.628l-.07-.048h0c-2.252-1.549-2.308-4.831-1.575-8.186a19.848,19.848,0,0,1,8.829,1.31c4.729,1.689,9.678.734,12.547-.135C617.843,506.08,617.556,508.827,615.5,510.18Z" transform="translate(-338.303 -273.954)" fill="#ae0018"/>
    <circle id="Ellipse_78" data-name="Ellipse 78" cx="0.647" cy="0.647" r="0.647" transform="translate(262.963 225.482)" fill="#ae0018"/>
    <circle id="Ellipse_79" data-name="Ellipse 79" cx="0.647" cy="0.647" r="0.647" transform="translate(261.151 231.436)" fill="#fff"/>
    <circle id="Ellipse_80" data-name="Ellipse 80" cx="0.388" cy="0.388" r="0.388" transform="translate(264.775 227.294)" fill="#ae0018"/>
    <circle id="Ellipse_81" data-name="Ellipse 81" cx="0.388" cy="0.388" r="0.388" transform="translate(266.328 234.672)" fill="#fff"/>
    <circle id="Ellipse_82" data-name="Ellipse 82" cx="0.388" cy="0.388" r="0.388" transform="translate(263.61 235.06)" fill="#fff"/>
    <circle id="Ellipse_83" data-name="Ellipse 83" cx="0.388" cy="0.388" r="0.388" transform="translate(271.506 222.116)" fill="#ae0018"/>
    <path id="Tracé_132" data-name="Tracé 132" d="M672.374,441.862c-.493-1.053-.883-1.8-1.019-2.054-8.368,2.065-13.95.32-14.831.011a49.194,49.194,0,0,0-4.2,10.993c-.981,4.494-.412,7.507,1.693,8.955l.062.044.014.009c2.323,1.531,4.54,2.887,6.587,4.03q.414.23.78.428l.026.014.018.023a12.449,12.449,0,0,1,.784,1.106,4.348,4.348,0,0,1,.795,2.149v22.322l-.141,0c-5.337.109-8.641,1.014-8.641,1.789,0,.851,3.962,1.8,9.646,1.8s9.646-.948,9.646-1.8c0-.764-3.248-1.664-8.495-1.785l-.142,0,.132-20.648a9.1,9.1,0,0,1,.95-4.029c.106-.21.22-.415.338-.608.1-.155.2-.307.3-.45l.019-.026.029-.016q.394-.215.837-.467l.035-.019c1.938-1.094,4.025-2.377,6.205-3.814,1.947-1.283,2.624-3.877,2.015-7.709A41.2,41.2,0,0,0,672.374,441.862Z" transform="translate(-365.313 -244.171)" fill="#d0cde1"/>
    <path id="Tracé_133" data-name="Tracé 133" d="M673.883,469.714c-2.286,1.507-4.173,2.637-5.616,3.451h0a32.867,32.867,0,0,0-6.314.177c-1.48-.826-3.476-2.01-5.931-3.628l-.07-.048h0c-2.252-1.549-2.308-4.831-1.575-8.186a19.848,19.848,0,0,1,8.829,1.31c4.728,1.689,9.678.734,12.547-.135C676.222,465.614,675.934,468.361,673.883,469.714Z" transform="translate(-366.322 -254.532)" fill="#ae0018"/>
    <circle id="Ellipse_84" data-name="Ellipse 84" cx="0.647" cy="0.647" r="0.647" transform="translate(293.322 204.438)" fill="#ae0018"/>
    <circle id="Ellipse_85" data-name="Ellipse 85" cx="0.647" cy="0.647" r="0.647" transform="translate(291.51 210.392)" fill="#fff"/>
    <circle id="Ellipse_86" data-name="Ellipse 86" cx="0.388" cy="0.388" r="0.388" transform="translate(295.134 206.25)" fill="#ae0018"/>
    <circle id="Ellipse_87" data-name="Ellipse 87" cx="0.388" cy="0.388" r="0.388" transform="translate(296.688 213.628)" fill="#fff"/>
    <circle id="Ellipse_88" data-name="Ellipse 88" cx="0.388" cy="0.388" r="0.388" transform="translate(293.969 214.016)" fill="#fff"/>
    <circle id="Ellipse_89" data-name="Ellipse 89" cx="0.388" cy="0.388" r="0.388" transform="translate(301.865 201.073)" fill="#ae0018"/>
  </g>
</svg>
